<svg xmlns="http://www.w3.org/2000/svg" viewBox="0 0 512 512">
    <linearGradient id="gradient-a" gradientUnits="userSpaceOnUse" x1="256" x2="256" y1="512" y2="-85.333">
        <stop offset="0" stop-color="#c3ffe8"></stop>
        <stop offset=".9973" stop-color="#f0fff4"></stop>
    </linearGradient>
    <linearGradient id="gradient-b" gradientUnits="userSpaceOnUse" x1="256" x2="256" y1="407" y2="105">
        <stop offset="0" stop-color="#9cffac"></stop>
        <stop offset="1" stop-color="#00b59c"></stop>
    </linearGradient>
    <g>
        <circle cx="256" cy="256" fill="url(#gradient-b)" r="256"></circle>
        <path d="m373.969 247.742c4.886 0 8.848 3.961 8.848 8.848 0 4.886-3.961 8.848-8.848 8.848h-2.949v17.695h-82.578v-35.391zm-230.039-17.695h2.949v17.695h123.867v-17.695h2.949c4.886 0 8.848-3.961 8.848-8.848s-3.961-8.848-8.848-8.848h-129.765c-4.886 0-8.848 3.961-8.848 8.848s3.961 8.848 8.848 8.848zm76.718-36.57h82.841c19.546 0 35.391-15.845 35.391-35.391h-93.195c-15.477 0-28.634 9.935-33.441 23.776-1.977 5.692 2.379 11.615 8.404 11.615zm176.914-70.782c0-9.773-7.922-17.695-17.695-17.695h-82.578c-19.546 0-35.391 15.845-35.391 35.391h117.969c9.773 0 17.695-7.923 17.695-17.696zm.59 266.61h-7.551c-12.825-20.785-19.582-44.567-19.582-69.077v-19.399h-82.578v5.295c0 27.63 8.488 54.118 24.548 76.601l17.34 24.275h67.823c4.886 0 8.848-3.961 8.848-8.848 0-4.886-3.961-8.847-8.848-8.847zm-99.562 3.705 9.993 13.99h-194.735c-4.886 0-8.848-3.961-8.848-8.848 0-4.886 3.961-8.848 8.848-8.848h7.743c16.555-24.686 25.288-53.345 25.288-83.181v-40.686h123.867v40.686c0 31.34 9.629 61.385 27.844 86.887zm-97.44-56.496c-2.443-4.232-7.854-5.682-12.086-3.238l-15.324 8.848c-4.232 2.443-5.682 7.854-3.238 12.086s7.854 5.682 12.086 3.238l15.324-8.848c4.231-2.444 5.681-7.855 3.238-12.086zm16.51-22.119v-17.695c0-4.886-3.961-8.848-8.848-8.848-4.886 0-8.848 3.961-8.848 8.848v17.695c0 4.886 3.961 8.848 8.848 8.848 4.887-.001 8.848-3.962 8.848-8.848zm26.225 27.728-15.324-8.848c-4.232-2.443-9.643-.993-12.086 3.238s-.993 9.643 3.238 12.086l15.324 8.848c4.232 2.443 9.643.993 12.086-3.238s.994-9.643-3.238-12.086z" fill="#fff"></path>
    </g>
</svg>